<mxfile host="app.diagrams.net" modified="2023-12-28T05:49:18.816Z" agent="Mozilla/5.0 (Windows NT 10.0; Win64; x64) AppleWebKit/537.36 (KHTML, like Gecko) Chrome/119.0.0.0 Safari/537.36" etag="5CjxULwMOQFz4RGEy5D6" version="22.1.11" type="device">
  <diagram id="C5RBs43oDa-KdzZeNtuy" name="Page-1">
    <mxGraphModel dx="2427" dy="869" grid="1" gridSize="10" guides="1" tooltips="1" connect="1" arrows="1" fold="1" page="1" pageScale="1" pageWidth="827" pageHeight="1169" math="0" shadow="0">
      <root>
        <mxCell id="WIyWlLk6GJQsqaUBKTNV-0" />
        <mxCell id="WIyWlLk6GJQsqaUBKTNV-1" parent="WIyWlLk6GJQsqaUBKTNV-0" />
        <mxCell id="SptKipQqMon6AkZY7WNS-16" value="" style="edgeStyle=orthogonalEdgeStyle;rounded=0;orthogonalLoop=1;jettySize=auto;html=1;" edge="1" parent="WIyWlLk6GJQsqaUBKTNV-1">
          <mxGeometry relative="1" as="geometry">
            <mxPoint x="201.25" y="230" as="sourcePoint" />
            <mxPoint x="201.25" y="280" as="targetPoint" />
          </mxGeometry>
        </mxCell>
        <mxCell id="SptKipQqMon6AkZY7WNS-1" value="&quot;Введите количество строк&quot;&lt;br&gt;size" style="shape=parallelogram;perimeter=parallelogramPerimeter;whiteSpace=wrap;html=1;fixedSize=1;" vertex="1" parent="WIyWlLk6GJQsqaUBKTNV-1">
          <mxGeometry x="100" y="170" width="197.5" height="60" as="geometry" />
        </mxCell>
        <mxCell id="SptKipQqMon6AkZY7WNS-10" value="" style="edgeStyle=orthogonalEdgeStyle;rounded=0;orthogonalLoop=1;jettySize=auto;html=1;" edge="1" parent="WIyWlLk6GJQsqaUBKTNV-1" source="SptKipQqMon6AkZY7WNS-2">
          <mxGeometry relative="1" as="geometry">
            <mxPoint x="201.25" y="170" as="targetPoint" />
          </mxGeometry>
        </mxCell>
        <mxCell id="SptKipQqMon6AkZY7WNS-2" value="Start" style="rounded=1;whiteSpace=wrap;html=1;" vertex="1" parent="WIyWlLk6GJQsqaUBKTNV-1">
          <mxGeometry x="141.25" y="70" width="120" height="50" as="geometry" />
        </mxCell>
        <mxCell id="SptKipQqMon6AkZY7WNS-19" value="" style="edgeStyle=orthogonalEdgeStyle;rounded=0;orthogonalLoop=1;jettySize=auto;html=1;" edge="1" parent="WIyWlLk6GJQsqaUBKTNV-1" target="SptKipQqMon6AkZY7WNS-18">
          <mxGeometry relative="1" as="geometry">
            <mxPoint x="201.25" y="340" as="sourcePoint" />
          </mxGeometry>
        </mxCell>
        <mxCell id="SptKipQqMon6AkZY7WNS-12" value="&quot;Введите строки&quot;&lt;br&gt;stringArray" style="shape=parallelogram;perimeter=parallelogramPerimeter;whiteSpace=wrap;html=1;fixedSize=1;" vertex="1" parent="WIyWlLk6GJQsqaUBKTNV-1">
          <mxGeometry x="100" y="280" width="197.5" height="60" as="geometry" />
        </mxCell>
        <mxCell id="SptKipQqMon6AkZY7WNS-95" value="" style="edgeStyle=orthogonalEdgeStyle;rounded=0;orthogonalLoop=1;jettySize=auto;html=1;" edge="1" parent="WIyWlLk6GJQsqaUBKTNV-1" source="SptKipQqMon6AkZY7WNS-18" target="SptKipQqMon6AkZY7WNS-49">
          <mxGeometry relative="1" as="geometry" />
        </mxCell>
        <mxCell id="SptKipQqMon6AkZY7WNS-18" value="stringArray = size&lt;br&gt;newsize = 0&lt;br&gt;length = 0&lt;br&gt;i = 0" style="rounded=0;whiteSpace=wrap;html=1;" vertex="1" parent="WIyWlLk6GJQsqaUBKTNV-1">
          <mxGeometry x="141.25" y="380" width="120" height="60" as="geometry" />
        </mxCell>
        <mxCell id="SptKipQqMon6AkZY7WNS-87" value="" style="edgeStyle=orthogonalEdgeStyle;rounded=0;orthogonalLoop=1;jettySize=auto;html=1;" edge="1" parent="WIyWlLk6GJQsqaUBKTNV-1" source="SptKipQqMon6AkZY7WNS-22" target="SptKipQqMon6AkZY7WNS-23">
          <mxGeometry relative="1" as="geometry" />
        </mxCell>
        <mxCell id="SptKipQqMon6AkZY7WNS-22" value="stringArray[i] = ввод строк с консоли&lt;br&gt;&lt;br&gt;length = длинна строки stringArray[i]" style="rounded=0;whiteSpace=wrap;html=1;" vertex="1" parent="WIyWlLk6GJQsqaUBKTNV-1">
          <mxGeometry x="141.25" y="650" width="120" height="80" as="geometry" />
        </mxCell>
        <mxCell id="SptKipQqMon6AkZY7WNS-45" style="edgeStyle=orthogonalEdgeStyle;rounded=0;orthogonalLoop=1;jettySize=auto;html=1;" edge="1" parent="WIyWlLk6GJQsqaUBKTNV-1" source="SptKipQqMon6AkZY7WNS-23" target="SptKipQqMon6AkZY7WNS-24">
          <mxGeometry relative="1" as="geometry" />
        </mxCell>
        <mxCell id="SptKipQqMon6AkZY7WNS-92" style="edgeStyle=orthogonalEdgeStyle;rounded=0;orthogonalLoop=1;jettySize=auto;html=1;entryX=0;entryY=0.5;entryDx=0;entryDy=0;" edge="1" parent="WIyWlLk6GJQsqaUBKTNV-1" source="SptKipQqMon6AkZY7WNS-23" target="SptKipQqMon6AkZY7WNS-49">
          <mxGeometry relative="1" as="geometry">
            <Array as="points">
              <mxPoint x="201" y="920" />
              <mxPoint x="-80" y="920" />
              <mxPoint x="-80" y="520" />
            </Array>
          </mxGeometry>
        </mxCell>
        <mxCell id="SptKipQqMon6AkZY7WNS-23" value="length &amp;lt;= 3" style="rhombus;whiteSpace=wrap;html=1;" vertex="1" parent="WIyWlLk6GJQsqaUBKTNV-1">
          <mxGeometry x="140.63" y="790" width="120" height="100" as="geometry" />
        </mxCell>
        <mxCell id="SptKipQqMon6AkZY7WNS-91" style="edgeStyle=orthogonalEdgeStyle;rounded=0;orthogonalLoop=1;jettySize=auto;html=1;" edge="1" parent="WIyWlLk6GJQsqaUBKTNV-1" source="SptKipQqMon6AkZY7WNS-24">
          <mxGeometry relative="1" as="geometry">
            <mxPoint x="40" y="520" as="targetPoint" />
          </mxGeometry>
        </mxCell>
        <mxCell id="SptKipQqMon6AkZY7WNS-24" value="newsize+=1" style="rounded=0;whiteSpace=wrap;html=1;" vertex="1" parent="WIyWlLk6GJQsqaUBKTNV-1">
          <mxGeometry x="-20" y="660" width="120" height="60" as="geometry" />
        </mxCell>
        <mxCell id="SptKipQqMon6AkZY7WNS-35" value="True" style="text;html=1;strokeColor=none;fillColor=none;align=center;verticalAlign=middle;whiteSpace=wrap;rounded=0;" vertex="1" parent="WIyWlLk6GJQsqaUBKTNV-1">
          <mxGeometry x="90" y="810" width="60" height="30" as="geometry" />
        </mxCell>
        <mxCell id="SptKipQqMon6AkZY7WNS-38" value="False" style="text;html=1;strokeColor=none;fillColor=none;align=center;verticalAlign=middle;whiteSpace=wrap;rounded=0;" vertex="1" parent="WIyWlLk6GJQsqaUBKTNV-1">
          <mxGeometry x="220" y="875" width="60" height="30" as="geometry" />
        </mxCell>
        <mxCell id="SptKipQqMon6AkZY7WNS-58" value="" style="edgeStyle=orthogonalEdgeStyle;rounded=0;orthogonalLoop=1;jettySize=auto;html=1;" edge="1" parent="WIyWlLk6GJQsqaUBKTNV-1" source="SptKipQqMon6AkZY7WNS-49" target="SptKipQqMon6AkZY7WNS-57">
          <mxGeometry relative="1" as="geometry" />
        </mxCell>
        <mxCell id="SptKipQqMon6AkZY7WNS-86" value="" style="edgeStyle=orthogonalEdgeStyle;rounded=0;orthogonalLoop=1;jettySize=auto;html=1;" edge="1" parent="WIyWlLk6GJQsqaUBKTNV-1" source="SptKipQqMon6AkZY7WNS-49" target="SptKipQqMon6AkZY7WNS-22">
          <mxGeometry relative="1" as="geometry" />
        </mxCell>
        <mxCell id="SptKipQqMon6AkZY7WNS-49" value="i &amp;lt; size" style="rhombus;whiteSpace=wrap;html=1;" vertex="1" parent="WIyWlLk6GJQsqaUBKTNV-1">
          <mxGeometry x="141.88" y="470" width="118.75" height="100" as="geometry" />
        </mxCell>
        <mxCell id="SptKipQqMon6AkZY7WNS-54" value="True" style="text;html=1;strokeColor=none;fillColor=none;align=center;verticalAlign=middle;whiteSpace=wrap;rounded=0;" vertex="1" parent="WIyWlLk6GJQsqaUBKTNV-1">
          <mxGeometry x="140.63" y="570" width="60" height="30" as="geometry" />
        </mxCell>
        <mxCell id="SptKipQqMon6AkZY7WNS-56" value="False" style="text;html=1;strokeColor=none;fillColor=none;align=center;verticalAlign=middle;whiteSpace=wrap;rounded=0;" vertex="1" parent="WIyWlLk6GJQsqaUBKTNV-1">
          <mxGeometry x="260.63" y="490" width="60" height="30" as="geometry" />
        </mxCell>
        <mxCell id="SptKipQqMon6AkZY7WNS-97" value="" style="edgeStyle=orthogonalEdgeStyle;rounded=0;orthogonalLoop=1;jettySize=auto;html=1;" edge="1" parent="WIyWlLk6GJQsqaUBKTNV-1" source="SptKipQqMon6AkZY7WNS-57" target="SptKipQqMon6AkZY7WNS-96">
          <mxGeometry relative="1" as="geometry" />
        </mxCell>
        <mxCell id="SptKipQqMon6AkZY7WNS-57" value="&lt;div&gt;newStringArray [newsize]&lt;/div&gt;&lt;div&gt;&amp;nbsp;j = 0&lt;/div&gt;" style="rounded=0;whiteSpace=wrap;html=1;" vertex="1" parent="WIyWlLk6GJQsqaUBKTNV-1">
          <mxGeometry x="470" y="620" width="230" height="60" as="geometry" />
        </mxCell>
        <mxCell id="SptKipQqMon6AkZY7WNS-62" value="" style="edgeStyle=orthogonalEdgeStyle;rounded=0;orthogonalLoop=1;jettySize=auto;html=1;" edge="1" parent="WIyWlLk6GJQsqaUBKTNV-1" target="SptKipQqMon6AkZY7WNS-61">
          <mxGeometry relative="1" as="geometry">
            <mxPoint x="585" y="820" as="sourcePoint" />
          </mxGeometry>
        </mxCell>
        <mxCell id="SptKipQqMon6AkZY7WNS-69" value="" style="edgeStyle=orthogonalEdgeStyle;rounded=0;orthogonalLoop=1;jettySize=auto;html=1;" edge="1" parent="WIyWlLk6GJQsqaUBKTNV-1" source="SptKipQqMon6AkZY7WNS-61" target="SptKipQqMon6AkZY7WNS-63">
          <mxGeometry relative="1" as="geometry" />
        </mxCell>
        <mxCell id="SptKipQqMon6AkZY7WNS-61" value="j &amp;lt; size" style="rhombus;whiteSpace=wrap;html=1;" vertex="1" parent="WIyWlLk6GJQsqaUBKTNV-1">
          <mxGeometry x="528.75" y="875" width="112.5" height="90" as="geometry" />
        </mxCell>
        <mxCell id="SptKipQqMon6AkZY7WNS-70" value="" style="edgeStyle=orthogonalEdgeStyle;rounded=0;orthogonalLoop=1;jettySize=auto;html=1;" edge="1" parent="WIyWlLk6GJQsqaUBKTNV-1" source="SptKipQqMon6AkZY7WNS-63" target="SptKipQqMon6AkZY7WNS-64">
          <mxGeometry relative="1" as="geometry" />
        </mxCell>
        <mxCell id="SptKipQqMon6AkZY7WNS-63" value="&amp;nbsp;length = длинна строки stringArray[i]&lt;br&gt;" style="rounded=0;whiteSpace=wrap;html=1;" vertex="1" parent="WIyWlLk6GJQsqaUBKTNV-1">
          <mxGeometry x="525" y="1010" width="120" height="60" as="geometry" />
        </mxCell>
        <mxCell id="SptKipQqMon6AkZY7WNS-66" style="edgeStyle=orthogonalEdgeStyle;rounded=0;orthogonalLoop=1;jettySize=auto;html=1;entryX=0.5;entryY=1;entryDx=0;entryDy=0;" edge="1" parent="WIyWlLk6GJQsqaUBKTNV-1" source="SptKipQqMon6AkZY7WNS-64" target="SptKipQqMon6AkZY7WNS-65">
          <mxGeometry relative="1" as="geometry" />
        </mxCell>
        <mxCell id="SptKipQqMon6AkZY7WNS-67" style="edgeStyle=orthogonalEdgeStyle;rounded=0;orthogonalLoop=1;jettySize=auto;html=1;entryX=0;entryY=0.5;entryDx=0;entryDy=0;" edge="1" parent="WIyWlLk6GJQsqaUBKTNV-1" source="SptKipQqMon6AkZY7WNS-64">
          <mxGeometry relative="1" as="geometry">
            <mxPoint x="525" y="780" as="targetPoint" />
            <Array as="points">
              <mxPoint x="585" y="1240" />
              <mxPoint x="320" y="1240" />
              <mxPoint x="320" y="780" />
            </Array>
          </mxGeometry>
        </mxCell>
        <mxCell id="SptKipQqMon6AkZY7WNS-64" value="length &amp;lt;= 3" style="rhombus;whiteSpace=wrap;html=1;" vertex="1" parent="WIyWlLk6GJQsqaUBKTNV-1">
          <mxGeometry x="525" y="1110" width="120" height="100" as="geometry" />
        </mxCell>
        <mxCell id="SptKipQqMon6AkZY7WNS-68" style="edgeStyle=orthogonalEdgeStyle;rounded=0;orthogonalLoop=1;jettySize=auto;html=1;" edge="1" parent="WIyWlLk6GJQsqaUBKTNV-1" source="SptKipQqMon6AkZY7WNS-65">
          <mxGeometry relative="1" as="geometry">
            <mxPoint x="440" y="780" as="targetPoint" />
          </mxGeometry>
        </mxCell>
        <mxCell id="SptKipQqMon6AkZY7WNS-65" value="j+=1" style="rounded=0;whiteSpace=wrap;html=1;" vertex="1" parent="WIyWlLk6GJQsqaUBKTNV-1">
          <mxGeometry x="380" y="890" width="120" height="60" as="geometry" />
        </mxCell>
        <mxCell id="SptKipQqMon6AkZY7WNS-71" value="True" style="text;html=1;strokeColor=none;fillColor=none;align=center;verticalAlign=middle;whiteSpace=wrap;rounded=0;" vertex="1" parent="WIyWlLk6GJQsqaUBKTNV-1">
          <mxGeometry x="470" y="1120" width="60" height="30" as="geometry" />
        </mxCell>
        <mxCell id="SptKipQqMon6AkZY7WNS-72" value="False" style="text;html=1;strokeColor=none;fillColor=none;align=center;verticalAlign=middle;whiteSpace=wrap;rounded=0;" vertex="1" parent="WIyWlLk6GJQsqaUBKTNV-1">
          <mxGeometry x="600" y="1210" width="60" height="30" as="geometry" />
        </mxCell>
        <mxCell id="SptKipQqMon6AkZY7WNS-76" value="" style="edgeStyle=orthogonalEdgeStyle;rounded=0;orthogonalLoop=1;jettySize=auto;html=1;" edge="1" parent="WIyWlLk6GJQsqaUBKTNV-1" source="SptKipQqMon6AkZY7WNS-73" target="SptKipQqMon6AkZY7WNS-75">
          <mxGeometry relative="1" as="geometry">
            <Array as="points">
              <mxPoint x="840" y="870" />
              <mxPoint x="840" y="870" />
            </Array>
          </mxGeometry>
        </mxCell>
        <mxCell id="SptKipQqMon6AkZY7WNS-73" value="Вывод&lt;br&gt;newStringArray" style="shape=parallelogram;perimeter=parallelogramPerimeter;whiteSpace=wrap;html=1;fixedSize=1;" vertex="1" parent="WIyWlLk6GJQsqaUBKTNV-1">
          <mxGeometry x="780" y="750" width="120" height="60" as="geometry" />
        </mxCell>
        <mxCell id="SptKipQqMon6AkZY7WNS-75" value="End" style="rounded=1;whiteSpace=wrap;html=1;" vertex="1" parent="WIyWlLk6GJQsqaUBKTNV-1">
          <mxGeometry x="780" y="890" width="120" height="60" as="geometry" />
        </mxCell>
        <mxCell id="SptKipQqMon6AkZY7WNS-98" style="edgeStyle=orthogonalEdgeStyle;rounded=0;orthogonalLoop=1;jettySize=auto;html=1;entryX=0;entryY=0.5;entryDx=0;entryDy=0;" edge="1" parent="WIyWlLk6GJQsqaUBKTNV-1" source="SptKipQqMon6AkZY7WNS-96" target="SptKipQqMon6AkZY7WNS-73">
          <mxGeometry relative="1" as="geometry" />
        </mxCell>
        <mxCell id="SptKipQqMon6AkZY7WNS-96" value="j &amp;lt; size" style="rhombus;whiteSpace=wrap;html=1;" vertex="1" parent="WIyWlLk6GJQsqaUBKTNV-1">
          <mxGeometry x="525" y="730" width="118.75" height="100" as="geometry" />
        </mxCell>
        <mxCell id="SptKipQqMon6AkZY7WNS-99" value="True" style="text;html=1;strokeColor=none;fillColor=none;align=center;verticalAlign=middle;whiteSpace=wrap;rounded=0;" vertex="1" parent="WIyWlLk6GJQsqaUBKTNV-1">
          <mxGeometry x="525" y="825" width="60" height="30" as="geometry" />
        </mxCell>
        <mxCell id="SptKipQqMon6AkZY7WNS-100" value="False" style="text;html=1;strokeColor=none;fillColor=none;align=center;verticalAlign=middle;whiteSpace=wrap;rounded=0;" vertex="1" parent="WIyWlLk6GJQsqaUBKTNV-1">
          <mxGeometry x="640" y="750" width="60" height="30" as="geometry" />
        </mxCell>
      </root>
    </mxGraphModel>
  </diagram>
</mxfile>
